<mxfile host="app.diagrams.net" modified="2024-06-09T09:19:16.058Z" agent="Mozilla/5.0 (Windows NT 10.0; Win64; x64) AppleWebKit/537.36 (KHTML, like Gecko) Chrome/125.0.0.0 Safari/537.36" etag="-V1nZMvIqQWs--vN8Sor" version="24.5.2" type="google">
  <diagram name="Trang-1" id="F5r991Gvu9dzV4GOGDlU">
    <mxGraphModel grid="1" page="1" gridSize="10" guides="1" tooltips="1" connect="1" arrows="1" fold="1" pageScale="1" pageWidth="3300" pageHeight="2339" math="0" shadow="0">
      <root>
        <mxCell id="0" />
        <mxCell id="1" parent="0" />
        <mxCell id="rRtg8rdY8QU0qcmDAT2t-1" value="&lt;b&gt;NguoiDung&lt;/b&gt;" style="swimlane;childLayout=stackLayout;horizontal=1;startSize=50;horizontalStack=0;rounded=1;fontSize=14;fontStyle=0;strokeWidth=2;resizeParent=0;resizeLast=1;shadow=0;dashed=0;align=center;arcSize=4;whiteSpace=wrap;html=1;" vertex="1" parent="1">
          <mxGeometry x="80" y="370" width="150" height="160" as="geometry" />
        </mxCell>
        <mxCell id="rRtg8rdY8QU0qcmDAT2t-2" value="+&lt;u&gt;&lt;b&gt;MaND&lt;/b&gt;&lt;/u&gt;&lt;br&gt;+TenND&lt;br&gt;+Email&lt;div&gt;+MK&lt;/div&gt;&lt;div&gt;+NgaySinh&lt;/div&gt;&lt;div&gt;+GT&lt;/div&gt;" style="align=left;strokeColor=none;fillColor=none;spacingLeft=4;fontSize=12;verticalAlign=top;resizable=0;rotatable=0;part=1;html=1;" vertex="1" parent="rRtg8rdY8QU0qcmDAT2t-1">
          <mxGeometry y="50" width="150" height="110" as="geometry" />
        </mxCell>
        <mxCell id="rRtg8rdY8QU0qcmDAT2t-8" value="&lt;b&gt;BT_ND&lt;/b&gt;" style="swimlane;childLayout=stackLayout;horizontal=1;startSize=50;horizontalStack=0;rounded=1;fontSize=14;fontStyle=0;strokeWidth=2;resizeParent=0;resizeLast=1;shadow=0;dashed=0;align=center;arcSize=4;whiteSpace=wrap;html=1;" vertex="1" parent="1">
          <mxGeometry x="340" y="185" width="160" height="170" as="geometry" />
        </mxCell>
        <mxCell id="rRtg8rdY8QU0qcmDAT2t-9" value="+&lt;b&gt;&lt;u style=&quot;&quot;&gt;MaBTND&lt;/u&gt;&lt;/b&gt;&lt;br&gt;+MaND&lt;br&gt;+MaBT&lt;div&gt;+Ngay&lt;/div&gt;&lt;div&gt;+TGThucHien&lt;/div&gt;&lt;div&gt;+CaloTH&lt;/div&gt;" style="align=left;strokeColor=none;fillColor=none;spacingLeft=4;fontSize=12;verticalAlign=top;resizable=0;rotatable=0;part=1;html=1;" vertex="1" parent="rRtg8rdY8QU0qcmDAT2t-8">
          <mxGeometry y="50" width="160" height="120" as="geometry" />
        </mxCell>
        <mxCell id="rRtg8rdY8QU0qcmDAT2t-10" value="&lt;b&gt;BaiTap&lt;/b&gt;" style="swimlane;childLayout=stackLayout;horizontal=1;startSize=50;horizontalStack=0;rounded=1;fontSize=14;fontStyle=0;strokeWidth=2;resizeParent=0;resizeLast=1;shadow=0;dashed=0;align=center;arcSize=4;whiteSpace=wrap;html=1;" vertex="1" parent="1">
          <mxGeometry x="80" y="30" width="160" height="120" as="geometry" />
        </mxCell>
        <mxCell id="rRtg8rdY8QU0qcmDAT2t-11" value="+&lt;b&gt;&lt;u&gt;MaBT&lt;/u&gt;&lt;/b&gt;&lt;br&gt;+Ten&lt;br&gt;+CaloTH_BT" style="align=left;strokeColor=none;fillColor=none;spacingLeft=4;fontSize=12;verticalAlign=top;resizable=0;rotatable=0;part=1;html=1;" vertex="1" parent="rRtg8rdY8QU0qcmDAT2t-10">
          <mxGeometry y="50" width="160" height="70" as="geometry" />
        </mxCell>
        <mxCell id="rRtg8rdY8QU0qcmDAT2t-12" value="&lt;b&gt;DuLieuSK&lt;/b&gt;" style="swimlane;childLayout=stackLayout;horizontal=1;startSize=50;horizontalStack=0;rounded=1;fontSize=14;fontStyle=0;strokeWidth=2;resizeParent=0;resizeLast=1;shadow=0;dashed=0;align=center;arcSize=4;whiteSpace=wrap;html=1;" vertex="1" parent="1">
          <mxGeometry x="130" y="670" width="160" height="160" as="geometry" />
        </mxCell>
        <mxCell id="rRtg8rdY8QU0qcmDAT2t-13" value="+&lt;b&gt;&lt;u&gt;MaDL&lt;/u&gt;&lt;/b&gt;&lt;div&gt;+MaND&lt;/div&gt;&lt;div&gt;&lt;span style=&quot;background-color: initial;&quot;&gt;+HD&lt;/span&gt;&lt;/div&gt;&lt;div&gt;+NgayGN&lt;/div&gt;&lt;div&gt;+ChieuCao&lt;/div&gt;&lt;div&gt;+CanNang&lt;/div&gt;&lt;div&gt;&lt;span style=&quot;background-color: initial;&quot;&gt;+TinhTrang&lt;/span&gt;&lt;/div&gt;" style="align=left;strokeColor=none;fillColor=none;spacingLeft=4;fontSize=12;verticalAlign=top;resizable=0;rotatable=0;part=1;html=1;" vertex="1" parent="rRtg8rdY8QU0qcmDAT2t-12">
          <mxGeometry y="50" width="160" height="110" as="geometry" />
        </mxCell>
        <mxCell id="rRtg8rdY8QU0qcmDAT2t-14" value="&lt;b&gt;MucTieu&lt;/b&gt;" style="swimlane;childLayout=stackLayout;horizontal=1;startSize=50;horizontalStack=0;rounded=1;fontSize=14;fontStyle=0;strokeWidth=2;resizeParent=0;resizeLast=1;shadow=0;dashed=0;align=center;arcSize=4;whiteSpace=wrap;html=1;" vertex="1" parent="1">
          <mxGeometry x="600" y="370" width="160" height="140" as="geometry" />
        </mxCell>
        <mxCell id="rRtg8rdY8QU0qcmDAT2t-15" value="+&lt;b&gt;&lt;u&gt;MaMT&lt;/u&gt;&lt;/b&gt;&lt;br&gt;+MaND&lt;br&gt;+TenMT&lt;div&gt;+ThoiHan&lt;/div&gt;&lt;div&gt;+DatDuoc&lt;/div&gt;" style="align=left;strokeColor=none;fillColor=none;spacingLeft=4;fontSize=12;verticalAlign=top;resizable=0;rotatable=0;part=1;html=1;" vertex="1" parent="rRtg8rdY8QU0qcmDAT2t-14">
          <mxGeometry y="50" width="160" height="90" as="geometry" />
        </mxCell>
        <mxCell id="rRtg8rdY8QU0qcmDAT2t-18" value="Có" style="rhombus;whiteSpace=wrap;html=1;" vertex="1" parent="1">
          <mxGeometry x="410" y="410" width="80" height="80" as="geometry" />
        </mxCell>
        <mxCell id="rRtg8rdY8QU0qcmDAT2t-19" value="(1,n)" style="edgeStyle=orthogonalEdgeStyle;rounded=0;orthogonalLoop=1;jettySize=auto;html=1;exitX=1;exitY=0.5;exitDx=0;exitDy=0;entryX=0;entryY=0.5;entryDx=0;entryDy=0;shape=link;" edge="1" parent="1" source="rRtg8rdY8QU0qcmDAT2t-2" target="rRtg8rdY8QU0qcmDAT2t-18">
          <mxGeometry x="0.0049" relative="1" as="geometry">
            <mxPoint as="offset" />
          </mxGeometry>
        </mxCell>
        <mxCell id="rRtg8rdY8QU0qcmDAT2t-20" value="(1,1)" style="edgeStyle=orthogonalEdgeStyle;rounded=0;orthogonalLoop=1;jettySize=auto;html=1;exitX=1;exitY=0.5;exitDx=0;exitDy=0;entryX=-0.019;entryY=0.344;entryDx=0;entryDy=0;entryPerimeter=0;shape=link;" edge="1" parent="1" source="rRtg8rdY8QU0qcmDAT2t-18" target="rRtg8rdY8QU0qcmDAT2t-15">
          <mxGeometry relative="1" as="geometry" />
        </mxCell>
        <mxCell id="rRtg8rdY8QU0qcmDAT2t-25" value="(1,1)" style="edgeStyle=orthogonalEdgeStyle;rounded=0;orthogonalLoop=1;jettySize=auto;html=1;exitX=0.5;exitY=1;exitDx=0;exitDy=0;entryX=0.5;entryY=0;entryDx=0;entryDy=0;shape=link;" edge="1" parent="1" source="rRtg8rdY8QU0qcmDAT2t-23" target="rRtg8rdY8QU0qcmDAT2t-12">
          <mxGeometry relative="1" as="geometry" />
        </mxCell>
        <mxCell id="rRtg8rdY8QU0qcmDAT2t-23" value="Có" style="rhombus;whiteSpace=wrap;html=1;" vertex="1" parent="1">
          <mxGeometry x="320" y="580" width="80" height="70" as="geometry" />
        </mxCell>
        <mxCell id="rRtg8rdY8QU0qcmDAT2t-24" value="(1,1)" style="edgeStyle=orthogonalEdgeStyle;rounded=0;orthogonalLoop=1;jettySize=auto;html=1;exitX=0.5;exitY=1;exitDx=0;exitDy=0;entryX=0.5;entryY=0;entryDx=0;entryDy=0;strokeColor=default;shape=link;" edge="1" parent="1" source="rRtg8rdY8QU0qcmDAT2t-2" target="rRtg8rdY8QU0qcmDAT2t-23">
          <mxGeometry relative="1" as="geometry" />
        </mxCell>
        <mxCell id="rRtg8rdY8QU0qcmDAT2t-34" value="(1,n)" style="edgeStyle=orthogonalEdgeStyle;rounded=0;orthogonalLoop=1;jettySize=auto;html=1;exitX=0.5;exitY=1;exitDx=0;exitDy=0;entryX=0.5;entryY=0;entryDx=0;entryDy=0;shape=link;" edge="1" parent="1" source="rRtg8rdY8QU0qcmDAT2t-32" target="rRtg8rdY8QU0qcmDAT2t-1">
          <mxGeometry relative="1" as="geometry" />
        </mxCell>
        <mxCell id="rRtg8rdY8QU0qcmDAT2t-37" style="edgeStyle=orthogonalEdgeStyle;rounded=0;orthogonalLoop=1;jettySize=auto;html=1;exitX=1;exitY=0.5;exitDx=0;exitDy=0;entryX=0;entryY=0.5;entryDx=0;entryDy=0;" edge="1" parent="1" source="rRtg8rdY8QU0qcmDAT2t-32" target="rRtg8rdY8QU0qcmDAT2t-8">
          <mxGeometry relative="1" as="geometry" />
        </mxCell>
        <mxCell id="rRtg8rdY8QU0qcmDAT2t-32" value="Có" style="rhombus;whiteSpace=wrap;html=1;" vertex="1" parent="1">
          <mxGeometry x="115" y="230" width="80" height="80" as="geometry" />
        </mxCell>
        <mxCell id="rRtg8rdY8QU0qcmDAT2t-33" value="(1,n)" style="edgeStyle=orthogonalEdgeStyle;rounded=0;orthogonalLoop=1;jettySize=auto;html=1;exitX=0.5;exitY=1;exitDx=0;exitDy=0;entryX=0.5;entryY=0;entryDx=0;entryDy=0;shape=link;" edge="1" parent="1" source="rRtg8rdY8QU0qcmDAT2t-11" target="rRtg8rdY8QU0qcmDAT2t-32">
          <mxGeometry relative="1" as="geometry" />
        </mxCell>
      </root>
    </mxGraphModel>
  </diagram>
</mxfile>
